<svg width="5189" height="12904" viewBox="0 0 5189 12904" fill="none" xmlns="http://www.w3.org/2000/svg">
<g filter="url(#filter0_dd_1010_1875)">
<rect x="3656" y="270" width="89" height="89" rx="44.5" fill="url(#paint0_linear_1010_1875)"/>
</g>
<path fill-rule="evenodd" clip-rule="evenodd" d="M3701.21 340.873C3701.63 340.873 3702.05 340.759 3702.41 340.543L3707.61 337.487L3708.08 337.208L3707.52 336.26L3707.05 336.539L3701.86 339.595C3701.82 339.614 3701.79 339.631 3701.76 339.647L3701.76 331.305V330.755H3700.66V331.305L3700.66 339.647C3700.63 339.631 3700.59 339.614 3700.56 339.595L3695.37 336.539L3694.9 336.26L3694.34 337.208L3694.81 337.487L3700 340.543C3700.37 340.759 3700.79 340.873 3701.21 340.873ZM3717.43 330.425L3716.96 330.704L3717.52 331.652L3717.99 331.373L3723.19 328.316C3723.56 328.093 3723.88 327.771 3724.09 327.386C3724.31 327 3724.42 326.563 3724.42 326.12V320.028V319.478H3723.32V320.028V326.12C3723.32 326.18 3723.32 326.24 3723.31 326.299L3716.35 322.174L3715.87 321.893L3715.31 322.84L3715.79 323.12L3722.78 327.264C3722.73 327.302 3722.68 327.337 3722.63 327.368L3717.43 330.425ZM3684.43 331.373L3684.9 331.652L3685.46 330.704L3684.98 330.425L3679.79 327.368C3679.74 327.337 3679.69 327.302 3679.64 327.264L3686.63 323.12L3687.11 322.84L3686.54 321.893L3686.07 322.174L3679.11 326.299C3679.1 326.24 3679.1 326.18 3679.1 326.12L3679.1 320.028L3679.1 319.478H3678V320.028L3678 326.12C3678 326.563 3678.11 327 3678.33 327.386C3678.54 327.771 3678.86 328.093 3679.23 328.316L3684.43 331.373ZM3723.32 307.845V308.395H3724.42V307.845V301.753C3724.42 301.31 3724.31 300.873 3724.09 300.487C3723.88 300.102 3723.56 299.78 3723.19 299.557L3717.99 296.5L3717.52 296.221L3716.96 297.169L3717.43 297.448L3722.63 300.505C3722.68 300.536 3722.73 300.571 3722.78 300.609L3715.79 304.753L3715.31 305.033L3715.87 305.98L3716.35 305.699L3723.31 301.574C3723.32 301.633 3723.32 301.693 3723.32 301.753V307.845ZM3678 307.845V308.395H3679.1L3679.1 307.845L3679.1 301.753C3679.1 301.693 3679.1 301.633 3679.11 301.574L3686.07 305.699L3686.54 305.98L3687.11 305.033L3686.63 304.753L3679.64 300.609C3679.69 300.571 3679.74 300.536 3679.79 300.505L3684.98 297.448L3685.46 297.169L3684.9 296.221L3684.43 296.5L3679.23 299.557C3678.86 299.78 3678.54 300.102 3678.33 300.487C3678.11 300.873 3678 301.31 3678 301.753V307.845ZM3700.66 296.568V297.118H3701.76V296.568L3701.76 288.226C3701.79 288.242 3701.82 288.259 3701.86 288.278L3707.05 291.335L3707.52 291.614L3708.08 290.666L3707.61 290.387L3702.41 287.33C3702.05 287.114 3701.63 287 3701.21 287C3700.79 287 3700.37 287.114 3700 287.33L3694.81 290.387L3694.34 290.666L3694.9 291.614L3695.37 291.335L3700.56 288.278C3700.59 288.259 3700.63 288.242 3700.66 288.226L3700.66 296.568ZM3708.91 309.901L3708.44 310.19L3701.65 314.384L3701.65 320.592V321.142H3700.55V320.592L3700.55 314.126L3693.77 310.198L3693.3 309.923L3693.85 308.971L3694.33 309.247L3701.31 313.298L3707.86 309.255L3708.33 308.966L3708.91 309.901Z" fill="url(#paint1_linear_1010_1875)"/>
<path d="M3702.41 340.543L3702.92 341.405H3702.92L3702.41 340.543ZM3707.61 337.487L3708.11 338.348L3708.11 338.348L3707.61 337.487ZM3708.08 337.208L3708.59 338.069L3709.45 337.562L3708.94 336.7L3708.08 337.208ZM3707.52 336.26L3708.39 335.752L3707.88 334.891L3707.02 335.398L3707.52 336.26ZM3707.05 336.539L3706.54 335.677H3706.54L3707.05 336.539ZM3701.86 339.595L3702.36 340.457L3702.36 340.457L3701.86 339.595ZM3701.76 339.647H3700.76V341.238L3702.19 340.548L3701.76 339.647ZM3701.76 331.305H3700.76H3701.76ZM3701.76 330.755H3702.76V329.755H3701.76V330.755ZM3700.66 330.755V329.755H3699.66V330.755H3700.66ZM3700.66 331.305H3699.66H3700.66ZM3700.66 339.647L3700.23 340.548L3701.66 341.238V339.647H3700.66ZM3700.56 339.595L3701.07 338.734L3701.07 338.734L3700.56 339.595ZM3695.37 336.539L3694.86 337.4L3695.37 336.539ZM3694.9 336.26L3695.4 335.398L3694.54 334.891L3694.03 335.752L3694.9 336.26ZM3694.34 337.208L3693.48 336.7L3692.97 337.562L3693.83 338.069L3694.34 337.208ZM3694.81 337.487L3695.32 336.625H3695.32L3694.81 337.487ZM3700 340.543L3699.5 341.405H3699.5L3700 340.543ZM3716.96 330.704L3716.45 329.842L3715.59 330.349L3716.1 331.211L3716.96 330.704ZM3717.43 330.425L3716.93 329.563V329.563L3717.43 330.425ZM3717.52 331.652L3716.66 332.159L3717.16 333.021L3718.03 332.514L3717.52 331.652ZM3717.99 331.373L3718.5 332.235L3717.99 331.373ZM3723.19 328.316L3723.69 329.178L3723.69 329.178L3723.19 328.316ZM3724.09 327.386L3724.96 327.874L3724.96 327.874L3724.09 327.386ZM3724.42 319.478H3725.42V318.478H3724.42V319.478ZM3723.32 319.478V318.478H3722.32V319.478H3723.32ZM3723.31 326.299L3722.8 327.159L3724.12 327.942L3724.3 326.417L3723.31 326.299ZM3716.35 322.174L3715.84 323.034H3715.84L3716.35 322.174ZM3715.87 321.893L3716.38 321.033L3715.52 320.523L3715.01 321.384L3715.87 321.893ZM3715.31 322.84L3714.45 322.33L3713.94 323.19L3714.8 323.7L3715.31 322.84ZM3715.79 323.12L3716.3 322.26L3715.79 323.12ZM3722.78 327.264L3723.4 328.048L3724.54 327.145L3723.29 326.404L3722.78 327.264ZM3722.63 327.368L3723.14 328.23L3723.14 328.23L3722.63 327.368ZM3684.9 331.652L3684.39 332.514L3685.25 333.021L3685.76 332.159L3684.9 331.652ZM3684.43 331.373L3683.92 332.235H3683.92L3684.43 331.373ZM3685.46 330.704L3686.32 331.211L3686.83 330.349L3685.97 329.842L3685.46 330.704ZM3684.98 330.425L3684.48 331.287H3684.48L3684.98 330.425ZM3679.79 327.368L3680.3 326.506L3680.3 326.506L3679.79 327.368ZM3679.64 327.264L3679.13 326.404L3677.88 327.145L3679.02 328.048L3679.64 327.264ZM3686.63 323.12L3686.12 322.26L3686.63 323.12ZM3687.11 322.84L3687.62 323.7L3688.48 323.19L3687.97 322.33L3687.11 322.84ZM3686.54 321.893L3687.41 321.384L3686.9 320.523L3686.04 321.033L3686.54 321.893ZM3686.07 322.174L3685.56 321.314L3685.56 321.314L3686.07 322.174ZM3679.11 326.299L3678.12 326.417L3678.3 327.942L3679.62 327.159L3679.11 326.299ZM3679.1 326.12H3680.1H3680.1H3679.1ZM3679.1 320.028H3680.1H3680.1H3679.1ZM3679.1 319.478H3680.1L3680.1 318.478H3679.1V319.478ZM3678 319.478V318.478H3677V319.478H3678ZM3678 320.028H3677H3678ZM3678 326.12H3679H3678ZM3678.33 327.386L3679.2 326.898L3679.2 326.898L3678.33 327.386ZM3679.23 328.316L3678.73 329.178H3678.73L3679.23 328.316ZM3723.32 308.395H3722.32V309.395H3723.32V308.395ZM3724.42 308.395V309.395H3725.42V308.395H3724.42ZM3724.09 300.487L3723.22 300.975L3724.09 300.487ZM3723.19 299.557L3722.68 300.419L3722.68 300.419L3723.19 299.557ZM3717.99 296.5L3718.5 295.639V295.639L3717.99 296.5ZM3717.52 296.221L3718.03 295.36L3717.16 294.852L3716.66 295.714L3717.52 296.221ZM3716.96 297.169L3716.1 296.662L3715.59 297.524L3716.45 298.031L3716.96 297.169ZM3717.43 297.448L3717.94 296.586V296.586L3717.43 297.448ZM3722.63 300.505L3723.14 299.643L3723.14 299.643L3722.63 300.505ZM3722.78 300.609L3723.29 301.47L3724.54 300.729L3723.4 299.826L3722.78 300.609ZM3715.79 304.753L3715.28 303.893L3715.28 303.893L3715.79 304.753ZM3715.31 305.033L3714.8 304.173L3713.94 304.683L3714.45 305.543L3715.31 305.033ZM3715.87 305.98L3715.01 306.49L3715.52 307.35L3716.38 306.84L3715.87 305.98ZM3716.35 305.699L3716.86 306.56L3716.35 305.699ZM3723.31 301.574L3724.3 301.456L3724.12 299.931L3722.8 300.714L3723.31 301.574ZM3678 308.395H3677V309.395H3678V308.395ZM3679.1 308.395V309.395H3680.1L3680.1 308.395H3679.1ZM3679.1 307.845H3678.1H3679.1ZM3679.1 301.753H3678.1H3679.1ZM3679.11 301.574L3679.62 300.714L3678.3 299.931L3678.12 301.456L3679.11 301.574ZM3686.07 305.699L3686.58 304.839L3686.58 304.839L3686.07 305.699ZM3686.54 305.98L3686.04 306.84L3686.9 307.35L3687.41 306.49L3686.54 305.98ZM3687.11 305.033L3687.97 305.543L3688.48 304.683L3687.62 304.173L3687.11 305.033ZM3686.63 304.753L3686.12 305.613L3686.63 304.753ZM3679.64 300.609L3679.02 299.826L3677.88 300.729L3679.13 301.47L3679.64 300.609ZM3679.79 300.505L3679.28 299.643L3679.28 299.643L3679.79 300.505ZM3684.98 297.448L3684.48 296.586L3684.48 296.586L3684.98 297.448ZM3685.46 297.169L3685.97 298.031L3686.83 297.524L3686.32 296.662L3685.46 297.169ZM3684.9 296.221L3685.76 295.714L3685.25 294.852L3684.39 295.36L3684.9 296.221ZM3684.43 296.5L3683.92 295.639L3683.92 295.639L3684.43 296.5ZM3679.23 299.557L3678.73 298.695L3678.73 298.695L3679.23 299.557ZM3678.33 300.487L3679.2 300.975H3679.2L3678.33 300.487ZM3700.66 297.118H3699.66V298.118H3700.66V297.118ZM3700.66 296.568H3701.66H3700.66ZM3701.76 297.118V298.118H3702.76V297.118H3701.76ZM3701.76 296.568H3702.76H3701.76ZM3701.76 288.226L3702.19 287.325L3700.76 286.636V288.226L3701.76 288.226ZM3701.86 288.278L3702.36 287.416L3702.36 287.416L3701.86 288.278ZM3707.05 291.335L3706.54 292.196L3706.54 292.196L3707.05 291.335ZM3707.52 291.614L3707.02 292.475L3707.88 292.983L3708.39 292.121L3707.52 291.614ZM3708.08 290.666L3708.94 291.173L3709.45 290.311L3708.59 289.804L3708.08 290.666ZM3707.61 290.387L3708.11 289.525L3707.61 290.387ZM3702.41 287.33L3701.91 288.192L3701.91 288.192L3702.41 287.33ZM3700 287.33L3700.51 288.192L3700.51 288.192L3700 287.33ZM3694.81 290.387L3695.32 291.248L3695.32 291.248L3694.81 290.387ZM3694.34 290.666L3693.83 289.804L3692.97 290.311L3693.48 291.173L3694.34 290.666ZM3694.9 291.614L3694.03 292.121L3694.54 292.983L3695.4 292.475L3694.9 291.614ZM3695.37 291.335L3694.86 290.473V290.473L3695.37 291.335ZM3700.56 288.278L3700.06 287.416L3700.06 287.416L3700.56 288.278ZM3700.66 288.226L3701.66 288.226V286.636L3700.23 287.325L3700.66 288.226ZM3708.44 310.19L3708.96 311.041L3708.96 311.041L3708.44 310.19ZM3708.91 309.901L3709.43 310.752L3710.28 310.227L3709.76 309.376L3708.91 309.901ZM3701.65 314.384L3701.12 313.533L3700.65 313.826V314.384H3701.65ZM3701.65 320.592H3702.65H3701.65ZM3701.65 321.142V322.142H3702.65V321.142H3701.65ZM3700.55 321.142H3699.55V322.142H3700.55V321.142ZM3700.55 320.592H3701.55H3700.55ZM3700.55 314.126H3701.55V313.55L3701.05 313.261L3700.55 314.126ZM3693.77 310.198L3693.27 311.064H3693.27L3693.77 310.198ZM3693.3 309.923L3692.43 309.421L3691.93 310.286L3692.8 310.788L3693.3 309.923ZM3693.85 308.971L3694.35 308.106L3693.49 307.604L3692.98 308.469L3693.85 308.971ZM3694.33 309.247L3694.83 308.382L3694.83 308.382L3694.33 309.247ZM3701.31 313.298L3700.81 314.163L3701.33 314.464L3701.84 314.149L3701.31 313.298ZM3707.86 309.255L3707.33 308.404L3707.86 309.255ZM3708.33 308.966L3709.18 308.44L3708.65 307.589L3707.8 308.115L3708.33 308.966ZM3701.91 339.682C3701.69 339.808 3701.45 339.873 3701.21 339.873V341.873C3701.81 341.873 3702.4 341.71 3702.92 341.405L3701.91 339.682ZM3707.1 336.625L3701.91 339.682L3702.92 341.405L3708.11 338.348L3707.1 336.625ZM3707.57 336.346L3707.1 336.625L3708.11 338.348L3708.59 338.069L3707.57 336.346ZM3706.66 336.767L3707.22 337.715L3708.94 336.7L3708.39 335.752L3706.66 336.767ZM3707.56 337.4L3708.03 337.121L3707.02 335.398L3706.54 335.677L3707.56 337.4ZM3702.36 340.457L3707.56 337.4L3706.54 335.677L3701.35 338.734L3702.36 340.457ZM3702.19 340.548C3702.25 340.52 3702.31 340.49 3702.36 340.457L3701.35 338.734C3701.34 338.738 3701.33 338.742 3701.33 338.746L3702.19 340.548ZM3700.76 331.305L3700.76 339.647H3702.76L3702.76 331.305H3700.76ZM3700.76 330.755V331.305H3702.76V330.755H3700.76ZM3700.66 331.755H3701.76V329.755H3700.66V331.755ZM3701.66 331.305V330.755H3699.66V331.305H3701.66ZM3701.66 339.647L3701.66 331.305H3699.66L3699.66 339.647H3701.66ZM3700.06 340.457C3700.11 340.49 3700.17 340.52 3700.23 340.548L3701.09 338.746C3701.09 338.742 3701.08 338.738 3701.07 338.734L3700.06 340.457ZM3694.86 337.4L3700.06 340.457L3701.07 338.734L3695.88 335.677L3694.86 337.4ZM3694.39 337.121L3694.86 337.4L3695.88 335.677L3695.4 335.398L3694.39 337.121ZM3695.2 337.715L3695.76 336.767L3694.03 335.752L3693.48 336.7L3695.2 337.715ZM3695.32 336.625L3694.85 336.346L3693.83 338.069L3694.3 338.348L3695.32 336.625ZM3700.51 339.682L3695.32 336.625L3694.3 338.348L3699.5 341.405L3700.51 339.682ZM3701.21 339.873C3700.97 339.873 3700.73 339.808 3700.51 339.682L3699.5 341.405C3700.02 341.71 3700.61 341.873 3701.21 341.873V339.873ZM3717.47 331.566L3717.94 331.287L3716.93 329.563L3716.45 329.842L3717.47 331.566ZM3718.38 331.145L3717.82 330.197L3716.1 331.211L3716.66 332.159L3718.38 331.145ZM3717.49 330.511L3717.01 330.79L3718.03 332.514L3718.5 332.235L3717.49 330.511ZM3722.68 327.454L3717.49 330.511L3718.5 332.235L3723.69 329.178L3722.68 327.454ZM3723.22 326.898C3723.09 327.133 3722.9 327.324 3722.68 327.454L3723.69 329.178C3724.23 328.863 3724.66 328.41 3724.96 327.874L3723.22 326.898ZM3723.42 326.12C3723.42 326.394 3723.35 326.663 3723.22 326.898L3724.96 327.874C3725.26 327.337 3725.42 326.732 3725.42 326.12H3723.42ZM3723.42 320.028V326.12H3725.42V320.028H3723.42ZM3723.42 319.478V320.028H3725.42V319.478H3723.42ZM3723.32 320.478H3724.42V318.478H3723.32V320.478ZM3724.32 320.028V319.478H3722.32V320.028H3724.32ZM3724.32 326.12V320.028H3722.32V326.12H3724.32ZM3724.3 326.417C3724.31 326.319 3724.32 326.22 3724.32 326.12H3722.32C3722.32 326.14 3722.32 326.161 3722.32 326.181L3724.3 326.417ZM3715.84 323.034L3722.8 327.159L3723.82 325.439L3716.86 321.314L3715.84 323.034ZM3715.36 322.754L3715.84 323.034L3716.86 321.314L3716.38 321.033L3715.36 322.754ZM3716.17 323.35L3716.73 322.403L3715.01 321.384L3714.45 322.33L3716.17 323.35ZM3716.3 322.26L3715.82 321.98L3714.8 323.7L3715.28 323.98L3716.3 322.26ZM3723.29 326.404L3716.3 322.26L3715.28 323.98L3722.27 328.124L3723.29 326.404ZM3723.14 328.23C3723.23 328.175 3723.32 328.114 3723.4 328.048L3722.16 326.48C3722.15 326.49 3722.13 326.499 3722.12 326.506L3723.14 328.23ZM3717.94 331.287L3723.14 328.23L3722.12 326.506L3716.93 329.563L3717.94 331.287ZM3685.41 330.79L3684.93 330.511L3683.92 332.235L3684.39 332.514L3685.41 330.79ZM3684.6 330.197L3684.04 331.145L3685.76 332.159L3686.32 331.211L3684.6 330.197ZM3684.48 331.287L3684.95 331.566L3685.97 329.842L3685.49 329.563L3684.48 331.287ZM3679.28 328.23L3684.48 331.287L3685.49 329.563L3680.3 326.506L3679.28 328.23ZM3679.02 328.048C3679.1 328.114 3679.19 328.175 3679.28 328.23L3680.3 326.506C3680.29 326.499 3680.27 326.49 3680.26 326.48L3679.02 328.048ZM3686.12 322.26L3679.13 326.404L3680.15 328.124L3687.14 323.98L3686.12 322.26ZM3686.6 321.98L3686.12 322.26L3687.14 323.98L3687.62 323.7L3686.6 321.98ZM3685.68 322.403L3686.25 323.35L3687.97 322.33L3687.41 321.384L3685.68 322.403ZM3686.58 323.034L3687.05 322.754L3686.04 321.033L3685.56 321.314L3686.58 323.034ZM3679.62 327.159L3686.58 323.034L3685.56 321.314L3678.6 325.439L3679.62 327.159ZM3678.1 326.12C3678.1 326.22 3678.11 326.319 3678.12 326.417L3680.1 326.181C3680.1 326.161 3680.1 326.14 3680.1 326.12H3678.1ZM3678.1 320.028L3678.1 326.12H3680.1L3680.1 320.028H3678.1ZM3678.1 319.478L3678.1 320.028H3680.1V319.478H3678.1ZM3678 320.478H3679.1V318.478H3678V320.478ZM3679 320.028V319.478H3677V320.028H3679ZM3679 326.12L3679 320.028H3677L3677 326.12H3679ZM3679.2 326.898C3679.07 326.663 3679 326.394 3679 326.12H3677C3677 326.732 3677.16 327.337 3677.46 327.874L3679.2 326.898ZM3679.74 327.454C3679.52 327.324 3679.33 327.133 3679.2 326.898L3677.46 327.874C3677.76 328.41 3678.19 328.863 3678.73 329.178L3679.74 327.454ZM3684.93 330.511L3679.74 327.454L3678.73 329.178L3683.92 332.235L3684.93 330.511ZM3724.32 308.395V307.845H3722.32V308.395H3724.32ZM3724.42 307.395H3723.32V309.395H3724.42V307.395ZM3723.42 307.845V308.395H3725.42V307.845H3723.42ZM3723.42 301.753V307.845H3725.42V301.753H3723.42ZM3723.22 300.975C3723.35 301.21 3723.42 301.479 3723.42 301.753H3725.42C3725.42 301.141 3725.26 300.536 3724.96 300L3723.22 300.975ZM3722.68 300.419C3722.9 300.549 3723.09 300.741 3723.22 300.975L3724.96 300C3724.66 299.463 3724.23 299.01 3723.69 298.695L3722.68 300.419ZM3717.49 297.362L3722.68 300.419L3723.69 298.695L3718.5 295.639L3717.49 297.362ZM3717.01 297.083L3717.49 297.362L3718.5 295.639L3718.03 295.36L3717.01 297.083ZM3717.82 297.677L3718.38 296.729L3716.66 295.714L3716.1 296.662L3717.82 297.677ZM3717.94 296.586L3717.47 296.307L3716.45 298.031L3716.93 298.31L3717.94 296.586ZM3723.14 299.643L3717.94 296.586L3716.93 298.31L3722.12 301.367L3723.14 299.643ZM3723.4 299.826C3723.32 299.759 3723.23 299.698 3723.14 299.643L3722.12 301.367C3722.13 301.374 3722.15 301.383 3722.16 301.393L3723.4 299.826ZM3716.3 305.613L3723.29 301.47L3722.27 299.749L3715.28 303.893L3716.3 305.613ZM3715.82 305.894L3716.3 305.613L3715.28 303.893L3714.8 304.173L3715.82 305.894ZM3716.73 305.47L3716.17 304.524L3714.45 305.543L3715.01 306.49L3716.73 305.47ZM3715.84 304.839L3715.36 305.119L3716.38 306.84L3716.86 306.56L3715.84 304.839ZM3722.8 300.714L3715.84 304.839L3716.86 306.56L3723.82 302.435L3722.8 300.714ZM3724.32 301.753C3724.32 301.654 3724.31 301.554 3724.3 301.456L3722.32 301.692C3722.32 301.713 3722.32 301.733 3722.32 301.753H3724.32ZM3724.32 307.845V301.753H3722.32V307.845H3724.32ZM3679 308.395V307.845H3677V308.395H3679ZM3679.1 307.395H3678V309.395H3679.1V307.395ZM3678.1 307.845L3678.1 308.395H3680.1V307.845H3678.1ZM3678.1 301.753L3678.1 307.845H3680.1L3680.1 301.753H3678.1ZM3678.12 301.456C3678.11 301.554 3678.1 301.654 3678.1 301.753H3680.1C3680.1 301.733 3680.1 301.713 3680.1 301.692L3678.12 301.456ZM3686.58 304.839L3679.62 300.714L3678.6 302.435L3685.56 306.56L3686.58 304.839ZM3687.05 305.119L3686.58 304.839L3685.56 306.56L3686.04 306.84L3687.05 305.119ZM3686.25 304.524L3685.68 305.47L3687.41 306.49L3687.97 305.543L3686.25 304.524ZM3686.12 305.613L3686.6 305.894L3687.62 304.173L3687.14 303.893L3686.12 305.613ZM3679.13 301.47L3686.12 305.613L3687.14 303.893L3680.15 299.749L3679.13 301.47ZM3679.28 299.643C3679.19 299.698 3679.1 299.759 3679.02 299.826L3680.26 301.393C3680.27 301.383 3680.29 301.374 3680.3 301.367L3679.28 299.643ZM3684.48 296.586L3679.28 299.643L3680.3 301.367L3685.49 298.31L3684.48 296.586ZM3684.95 296.307L3684.48 296.586L3685.49 298.31L3685.97 298.031L3684.95 296.307ZM3684.04 296.729L3684.6 297.677L3686.32 296.662L3685.76 295.714L3684.04 296.729ZM3684.93 297.362L3685.41 297.083L3684.39 295.36L3683.92 295.639L3684.93 297.362ZM3679.74 300.419L3684.93 297.362L3683.92 295.639L3678.73 298.695L3679.74 300.419ZM3679.2 300.975C3679.33 300.741 3679.52 300.549 3679.74 300.419L3678.73 298.695C3678.19 299.01 3677.76 299.463 3677.46 300L3679.2 300.975ZM3679 301.753C3679 301.479 3679.07 301.21 3679.2 300.975L3677.46 300C3677.16 300.536 3677 301.141 3677 301.753H3679ZM3679 307.845V301.753H3677V307.845H3679ZM3701.66 297.118V296.568H3699.66V297.118H3701.66ZM3701.76 296.118H3700.66V298.118H3701.76V296.118ZM3700.76 296.568V297.118H3702.76V296.568H3700.76ZM3700.76 288.226L3700.76 296.568H3702.76L3702.76 288.226L3700.76 288.226ZM3702.36 287.416C3702.31 287.383 3702.25 287.353 3702.19 287.325L3701.33 289.127C3701.33 289.131 3701.34 289.135 3701.35 289.14L3702.36 287.416ZM3707.56 290.473L3702.36 287.416L3701.35 289.14L3706.54 292.196L3707.56 290.473ZM3708.03 290.752L3707.56 290.473L3706.54 292.196L3707.02 292.475L3708.03 290.752ZM3707.22 290.158L3706.66 291.106L3708.39 292.121L3708.94 291.173L3707.22 290.158ZM3707.1 291.248L3707.57 291.527L3708.59 289.804L3708.11 289.525L3707.1 291.248ZM3701.91 288.192L3707.1 291.248L3708.11 289.525L3702.92 286.468L3701.91 288.192ZM3701.21 288C3701.45 288 3701.69 288.065 3701.91 288.192L3702.92 286.468C3702.4 286.163 3701.81 286 3701.21 286V288ZM3700.51 288.192C3700.73 288.065 3700.97 288 3701.21 288V286C3700.61 286 3700.02 286.163 3699.5 286.468L3700.51 288.192ZM3695.32 291.248L3700.51 288.192L3699.5 286.468L3694.3 289.525L3695.32 291.248ZM3694.85 291.527L3695.32 291.248L3694.3 289.525L3693.83 289.804L3694.85 291.527ZM3695.76 291.106L3695.2 290.158L3693.48 291.173L3694.03 292.121L3695.76 291.106ZM3694.86 290.473L3694.39 290.752L3695.4 292.475L3695.88 292.196L3694.86 290.473ZM3700.06 287.416L3694.86 290.473L3695.88 292.196L3701.07 289.14L3700.06 287.416ZM3700.23 287.325C3700.17 287.353 3700.11 287.383 3700.06 287.416L3701.07 289.14C3701.08 289.135 3701.09 289.131 3701.09 289.127L3700.23 287.325ZM3701.66 296.568L3701.66 288.226L3699.66 288.226L3699.66 296.568H3701.66ZM3708.96 311.041L3709.43 310.752L3708.38 309.051L3707.91 309.34L3708.96 311.041ZM3702.17 315.235L3708.96 311.041L3707.91 309.34L3701.12 313.533L3702.17 315.235ZM3702.65 320.592L3702.65 314.384H3700.65L3700.65 320.592H3702.65ZM3702.65 321.142V320.592H3700.65V321.142H3702.65ZM3700.55 322.142H3701.65V320.142H3700.55V322.142ZM3699.55 320.592V321.142H3701.55V320.592H3699.55ZM3699.55 314.126L3699.55 320.592H3701.55L3701.55 314.126H3699.55ZM3693.27 311.064L3700.05 314.991L3701.05 313.261L3694.28 309.333L3693.27 311.064ZM3692.8 310.788L3693.27 311.064L3694.28 309.333L3693.8 309.057L3692.8 310.788ZM3692.98 308.469L3692.43 309.421L3694.16 310.424L3694.71 309.472L3692.98 308.469ZM3694.83 308.382L3694.35 308.106L3693.35 309.836L3693.82 310.112L3694.83 308.382ZM3701.82 312.433L3694.83 308.382L3693.82 310.112L3700.81 314.163L3701.82 312.433ZM3707.33 308.404L3700.79 312.447L3701.84 314.149L3708.39 310.105L3707.33 308.404ZM3707.8 308.115L3707.33 308.404L3708.39 310.105L3708.85 309.816L3707.8 308.115ZM3709.76 309.376L3709.18 308.44L3707.48 309.491L3708.06 310.427L3709.76 309.376Z" fill="url(#paint2_linear_1010_1875)"/>
<rect x="10" y="218" width="5169" height="12676" stroke="#969595" stroke-width="20" stroke-linecap="round" stroke-dasharray="50 50"/>
<path d="M98.8636 62.3182H81.8636C81.3788 59.5303 80.4849 57.0606 79.1818 54.9091C77.8788 52.7273 76.2576 50.8788 74.3182 49.3636C72.3788 47.8485 70.1667 46.7121 67.6818 45.9545C65.2273 45.1667 62.5758 44.7727 59.7273 44.7727C54.6667 44.7727 50.1818 46.0455 46.2727 48.5909C42.3636 51.1061 39.303 54.803 37.0909 59.6818C34.8788 64.5303 33.7727 70.4545 33.7727 77.4545C33.7727 84.5758 34.8788 90.5758 37.0909 95.4545C39.3333 100.303 42.3939 103.97 46.2727 106.455C50.1818 108.909 54.6515 110.136 59.6818 110.136C62.4697 110.136 65.0758 109.773 67.5 109.045C69.9545 108.288 72.1515 107.182 74.0909 105.727C76.0606 104.273 77.7121 102.485 79.0455 100.364C80.4091 98.2424 81.3485 95.8182 81.8636 93.0909L98.8636 93.1818C98.2273 97.6061 96.8485 101.758 94.7273 105.636C92.6364 109.515 89.8939 112.939 86.5 115.909C83.1061 118.848 79.1364 121.152 74.5909 122.818C70.0455 124.455 65 125.273 59.4545 125.273C51.2727 125.273 43.9697 123.379 37.5455 119.591C31.1212 115.803 26.0606 110.333 22.3636 103.182C18.6667 96.0303 16.8182 87.4545 16.8182 77.4545C16.8182 67.4242 18.6818 58.8485 22.4091 51.7273C26.1364 44.5758 31.2121 39.1061 37.6364 35.3182C44.0606 31.5303 51.3333 29.6364 59.4545 29.6364C64.6364 29.6364 69.4545 30.3636 73.9091 31.8182C78.3636 33.2727 82.3333 35.4091 85.8182 38.2273C89.303 41.0151 92.1667 44.4394 94.4091 48.5C96.6818 52.5303 98.1667 57.1364 98.8636 62.3182ZM144.034 125.364C137.216 125.364 131.307 123.864 126.307 120.864C121.307 117.864 117.428 113.667 114.67 108.273C111.943 102.879 110.58 96.5758 110.58 89.3636C110.58 82.1515 111.943 75.8333 114.67 70.4091C117.428 64.9848 121.307 60.7727 126.307 57.7727C131.307 54.7727 137.216 53.2727 144.034 53.2727C150.852 53.2727 156.761 54.7727 161.761 57.7727C166.761 60.7727 170.625 64.9848 173.352 70.4091C176.11 75.8333 177.489 82.1515 177.489 89.3636C177.489 96.5758 176.11 102.879 173.352 108.273C170.625 113.667 166.761 117.864 161.761 120.864C156.761 123.864 150.852 125.364 144.034 125.364ZM144.125 112.182C147.822 112.182 150.913 111.167 153.398 109.136C155.883 107.076 157.731 104.318 158.943 100.864C160.186 97.4091 160.807 93.5606 160.807 89.3182C160.807 85.0455 160.186 81.1818 158.943 77.7273C157.731 74.2424 155.883 71.4697 153.398 69.4091C150.913 67.3485 147.822 66.3182 144.125 66.3182C140.337 66.3182 137.186 67.3485 134.67 69.4091C132.186 71.4697 130.322 74.2424 129.08 77.7273C127.867 81.1818 127.261 85.0455 127.261 89.3182C127.261 93.5606 127.867 97.4091 129.08 100.864C130.322 104.318 132.186 107.076 134.67 109.136C137.186 111.167 140.337 112.182 144.125 112.182ZM191.455 124V54.1818H207.182V66.0455H208C209.455 62.0455 211.864 58.9242 215.227 56.6818C218.591 54.4091 222.606 53.2727 227.273 53.2727C232 53.2727 235.985 54.4242 239.227 56.7273C242.5 59 244.803 62.1061 246.136 66.0455H246.864C248.409 62.1667 251.015 59.0758 254.682 56.7727C258.379 54.4394 262.758 53.2727 267.818 53.2727C274.242 53.2727 279.485 55.303 283.545 59.3636C287.606 63.4242 289.636 69.3485 289.636 77.1364V124H273.136V79.6818C273.136 75.3485 271.985 72.1818 269.682 70.1818C267.379 68.1515 264.561 67.1364 261.227 67.1364C257.258 67.1364 254.152 68.3788 251.909 70.8636C249.697 73.3182 248.591 76.5151 248.591 80.4545V124H232.455V79C232.455 75.3939 231.364 72.5152 229.182 70.3636C227.03 68.2121 224.212 67.1364 220.727 67.1364C218.364 67.1364 216.212 67.7424 214.273 68.9545C212.333 70.1364 210.788 71.8182 209.636 74C208.485 76.1515 207.909 78.6667 207.909 81.5455V124H191.455ZM306.33 150.182V54.1818H322.511V65.7273H323.466C324.314 64.0303 325.511 62.2273 327.057 60.3182C328.602 58.3788 330.693 56.7273 333.33 55.3636C335.966 53.9697 339.33 53.2727 343.42 53.2727C348.814 53.2727 353.678 54.6515 358.011 57.4091C362.375 60.1364 365.83 64.1818 368.375 69.5455C370.951 74.8788 372.239 81.4242 372.239 89.1818C372.239 96.8485 370.981 103.364 368.466 108.727C365.951 114.091 362.527 118.182 358.193 121C353.86 123.818 348.951 125.227 343.466 125.227C339.466 125.227 336.148 124.561 333.511 123.227C330.875 121.894 328.754 120.288 327.148 118.409C325.572 116.5 324.345 114.697 323.466 113H322.784V150.182H306.33ZM322.466 89.0909C322.466 93.6061 323.102 97.5606 324.375 100.955C325.678 104.348 327.542 107 329.966 108.909C332.42 110.788 335.39 111.727 338.875 111.727C342.511 111.727 345.557 110.758 348.011 108.818C350.466 106.848 352.314 104.167 353.557 100.773C354.83 97.3485 355.466 93.4545 355.466 89.0909C355.466 84.7576 354.845 80.9091 353.602 77.5455C352.36 74.1818 350.511 71.5455 348.057 69.6364C345.602 67.7273 342.542 66.7727 338.875 66.7727C335.36 66.7727 332.375 67.697 329.92 69.5455C327.466 71.3939 325.602 73.9848 324.33 77.3182C323.087 80.6515 322.466 84.5758 322.466 89.0909ZM416.784 125.364C409.966 125.364 404.057 123.864 399.057 120.864C394.057 117.864 390.178 113.667 387.42 108.273C384.693 102.879 383.33 96.5758 383.33 89.3636C383.33 82.1515 384.693 75.8333 387.42 70.4091C390.178 64.9848 394.057 60.7727 399.057 57.7727C404.057 54.7727 409.966 53.2727 416.784 53.2727C423.602 53.2727 429.511 54.7727 434.511 57.7727C439.511 60.7727 443.375 64.9848 446.102 70.4091C448.86 75.8333 450.239 82.1515 450.239 89.3636C450.239 96.5758 448.86 102.879 446.102 108.273C443.375 113.667 439.511 117.864 434.511 120.864C429.511 123.864 423.602 125.364 416.784 125.364ZM416.875 112.182C420.572 112.182 423.663 111.167 426.148 109.136C428.633 107.076 430.481 104.318 431.693 100.864C432.936 97.4091 433.557 93.5606 433.557 89.3182C433.557 85.0455 432.936 81.1818 431.693 77.7273C430.481 74.2424 428.633 71.4697 426.148 69.4091C423.663 67.3485 420.572 66.3182 416.875 66.3182C413.087 66.3182 409.936 67.3485 407.42 69.4091C404.936 71.4697 403.072 74.2424 401.83 77.7273C400.617 81.1818 400.011 85.0455 400.011 89.3182C400.011 93.5606 400.617 97.4091 401.83 100.864C403.072 104.318 404.936 107.076 407.42 109.136C409.936 111.167 413.087 112.182 416.875 112.182ZM480.659 83.0909V124H464.205V54.1818H479.932V66.0455H480.75C482.356 62.1364 484.917 59.0303 488.432 56.7273C491.977 54.4242 496.356 53.2727 501.568 53.2727C506.386 53.2727 510.583 54.303 514.159 56.3636C517.765 58.4242 520.553 61.4091 522.523 65.3182C524.523 69.2273 525.508 73.9697 525.477 79.5455V124H509.023V82.0909C509.023 77.4242 507.811 73.7727 505.386 71.1364C502.992 68.5 499.674 67.1818 495.432 67.1818C492.553 67.1818 489.992 67.8182 487.75 69.0909C485.538 70.3333 483.795 72.1364 482.523 74.5C481.28 76.8636 480.659 79.7273 480.659 83.0909ZM573.114 125.364C566.114 125.364 560.068 123.909 554.977 121C549.917 118.061 546.023 113.909 543.295 108.545C540.568 103.152 539.205 96.803 539.205 89.5C539.205 82.3182 540.568 76.0152 543.295 70.5909C546.053 65.1364 549.902 60.8939 554.841 57.8636C559.78 54.803 565.583 53.2727 572.25 53.2727C576.553 53.2727 580.614 53.9697 584.432 55.3636C588.28 56.7273 591.674 58.8485 594.614 61.7273C597.583 64.6061 599.917 68.2727 601.614 72.7273C603.311 77.1515 604.159 82.4242 604.159 88.5455V93.5909H546.932V82.5H588.386C588.356 79.3485 587.674 76.5455 586.341 74.0909C585.008 71.6061 583.144 69.6515 580.75 68.2273C578.386 66.803 575.629 66.0909 572.477 66.0909C569.114 66.0909 566.159 66.9091 563.614 68.5455C561.068 70.1515 559.083 72.2727 557.659 74.9091C556.265 77.5151 555.553 80.3788 555.523 83.5V93.1818C555.523 97.2424 556.265 100.727 557.75 103.636C559.235 106.515 561.311 108.727 563.977 110.273C566.644 111.788 569.765 112.545 573.341 112.545C575.735 112.545 577.902 112.212 579.841 111.545C581.78 110.848 583.462 109.833 584.886 108.5C586.311 107.167 587.386 105.515 588.114 103.545L603.477 105.273C602.508 109.333 600.659 112.879 597.932 115.909C595.235 118.909 591.78 121.242 587.568 122.909C583.356 124.545 578.538 125.364 573.114 125.364ZM634.534 83.0909V124H618.08V54.1818H633.807V66.0455H634.625C636.231 62.1364 638.792 59.0303 642.307 56.7273C645.852 54.4242 650.231 53.2727 655.443 53.2727C660.261 53.2727 664.458 54.303 668.034 56.3636C671.64 58.4242 674.428 61.4091 676.398 65.3182C678.398 69.2273 679.383 73.9697 679.352 79.5455V124H662.898V82.0909C662.898 77.4242 661.686 73.7727 659.261 71.1364C656.867 68.5 653.549 67.1818 649.307 67.1818C646.428 67.1818 643.867 67.8182 641.625 69.0909C639.413 70.3333 637.67 72.1364 636.398 74.5C635.155 76.8636 634.534 79.7273 634.534 83.0909ZM730.943 54.1818V66.9091H690.807V54.1818H730.943ZM700.716 37.4545H717.17V103C717.17 105.212 717.504 106.909 718.17 108.091C718.867 109.242 719.777 110.03 720.898 110.455C722.019 110.879 723.261 111.091 724.625 111.091C725.655 111.091 726.595 111.015 727.443 110.864C728.322 110.712 728.989 110.576 729.443 110.455L732.216 123.318C731.337 123.621 730.08 123.955 728.443 124.318C726.837 124.682 724.867 124.894 722.534 124.955C718.413 125.076 714.701 124.455 711.398 123.091C708.095 121.697 705.473 119.545 703.534 116.636C701.625 113.727 700.686 110.091 700.716 105.727V37.4545ZM774.864 125.364C767.864 125.364 761.818 123.909 756.727 121C751.667 118.061 747.773 113.909 745.045 108.545C742.318 103.152 740.955 96.803 740.955 89.5C740.955 82.3182 742.318 76.0152 745.045 70.5909C747.803 65.1364 751.652 60.8939 756.591 57.8636C761.53 54.803 767.333 53.2727 774 53.2727C778.303 53.2727 782.364 53.9697 786.182 55.3636C790.03 56.7273 793.424 58.8485 796.364 61.7273C799.333 64.6061 801.667 68.2727 803.364 72.7273C805.061 77.1515 805.909 82.4242 805.909 88.5455V93.5909H748.682V82.5H790.136C790.106 79.3485 789.424 76.5455 788.091 74.0909C786.758 71.6061 784.894 69.6515 782.5 68.2273C780.136 66.803 777.379 66.0909 774.227 66.0909C770.864 66.0909 767.909 66.9091 765.364 68.5455C762.818 70.1515 760.833 72.2727 759.409 74.9091C758.015 77.5151 757.303 80.3788 757.273 83.5V93.1818C757.273 97.2424 758.015 100.727 759.5 103.636C760.985 106.515 763.061 108.727 765.727 110.273C768.394 111.788 771.515 112.545 775.091 112.545C777.485 112.545 779.652 112.212 781.591 111.545C783.53 110.848 785.212 109.833 786.636 108.5C788.061 107.167 789.136 105.515 789.864 103.545L805.227 105.273C804.258 109.333 802.409 112.879 799.682 115.909C796.985 118.909 793.53 121.242 789.318 122.909C785.106 124.545 780.288 125.364 774.864 125.364ZM875.011 72.6364L860.011 74.2727C859.587 72.7576 858.845 71.3333 857.784 70C856.754 68.6667 855.36 67.5909 853.602 66.7727C851.845 65.9545 849.693 65.5455 847.148 65.5455C843.723 65.5455 840.845 66.2879 838.511 67.7727C836.208 69.2576 835.072 71.1818 835.102 73.5455C835.072 75.5758 835.814 77.2273 837.33 78.5C838.875 79.7727 841.42 80.8182 844.966 81.6364L856.875 84.1818C863.481 85.6061 868.39 87.8636 871.602 90.9545C874.845 94.0455 876.481 98.0909 876.511 103.091C876.481 107.485 875.193 111.364 872.648 114.727C870.133 118.061 866.633 120.667 862.148 122.545C857.663 124.424 852.511 125.364 846.693 125.364C838.148 125.364 831.269 123.576 826.057 120C820.845 116.394 817.739 111.379 816.739 104.955L832.784 103.409C833.511 106.561 835.057 108.939 837.42 110.545C839.784 112.152 842.86 112.955 846.648 112.955C850.557 112.955 853.693 112.152 856.057 110.545C858.451 108.939 859.648 106.955 859.648 104.591C859.648 102.591 858.875 100.939 857.33 99.6364C855.814 98.3333 853.451 97.3333 850.239 96.6364L838.33 94.1364C831.633 92.7424 826.678 90.3939 823.466 87.0909C820.254 83.7576 818.663 79.5455 818.693 74.4545C818.663 70.1515 819.83 66.4242 822.193 63.2727C824.587 60.0909 827.905 57.6364 832.148 55.9091C836.42 54.1515 841.345 53.2727 846.92 53.2727C855.102 53.2727 861.542 55.0152 866.239 58.5C870.966 61.9848 873.89 66.697 875.011 72.6364Z" fill="black"/>
<defs>
<filter id="filter0_dd_1010_1875" x="3641" y="256" width="119" height="126" filterUnits="userSpaceOnUse" color-interpolation-filters="sRGB">
<feFlood flood-opacity="0" result="BackgroundImageFix"/>
<feColorMatrix in="SourceAlpha" type="matrix" values="0 0 0 0 0 0 0 0 0 0 0 0 0 0 0 0 0 0 127 0" result="hardAlpha"/>
<feOffset dy="8"/>
<feGaussianBlur stdDeviation="7.5"/>
<feComposite in2="hardAlpha" operator="out"/>
<feColorMatrix type="matrix" values="0 0 0 0 0.321569 0 0 0 0 0.27451 0 0 0 0 0.560784 0 0 0 0.15 0"/>
<feBlend mode="normal" in2="BackgroundImageFix" result="effect1_dropShadow_1010_1875"/>
<feColorMatrix in="SourceAlpha" type="matrix" values="0 0 0 0 0 0 0 0 0 0 0 0 0 0 0 0 0 0 127 0" result="hardAlpha"/>
<feOffset dy="-4"/>
<feGaussianBlur stdDeviation="5"/>
<feComposite in2="hardAlpha" operator="out"/>
<feColorMatrix type="matrix" values="0 0 0 0 0.94902 0 0 0 0 0.945098 0 0 0 0 0.968627 0 0 0 1 0"/>
<feBlend mode="normal" in2="effect1_dropShadow_1010_1875" result="effect2_dropShadow_1010_1875"/>
<feBlend mode="normal" in="SourceGraphic" in2="effect2_dropShadow_1010_1875" result="shape"/>
</filter>
<linearGradient id="paint0_linear_1010_1875" x1="3700.5" y1="270" x2="3700.5" y2="359" gradientUnits="userSpaceOnUse">
<stop stop-color="white"/>
<stop offset="1" stop-color="#F4F6FA"/>
</linearGradient>
<linearGradient id="paint1_linear_1010_1875" x1="3701.21" y1="287" x2="3701.21" y2="340.873" gradientUnits="userSpaceOnUse">
<stop stop-color="#EF4B6D"/>
<stop offset="1" stop-color="#654F97"/>
</linearGradient>
<linearGradient id="paint2_linear_1010_1875" x1="3701.21" y1="287" x2="3701.21" y2="340.873" gradientUnits="userSpaceOnUse">
<stop stop-color="#EF4B6D"/>
<stop offset="1" stop-color="#654F97"/>
</linearGradient>
</defs>
</svg>
